<svg width="14" height="14" viewBox="0 0 14 14" fill="none" xmlns="http://www.w3.org/2000/svg">
<path d="M4.375 10.36L7 7.735L9.625 10.36L10.36 9.625L7.735 7L10.36 4.375L9.625 3.64L7 6.265L4.375 3.64L3.64 4.375L6.265 7L3.64 9.625L4.375 10.36ZM7 14C6.04333 14 5.13917 13.8162 4.2875 13.4488C3.43583 13.0813 2.69208 12.5796 2.05625 11.9438C1.42042 11.3079 0.91875 10.5642 0.55125 9.7125C0.18375 8.86083 0 7.95667 0 7C0 6.03167 0.18375 5.12167 0.55125 4.27C0.91875 3.41833 1.42042 2.6775 2.05625 2.0475C2.69208 1.4175 3.43583 0.91875 4.2875 0.55125C5.13917 0.18375 6.04333 0 7 0C7.96833 0 8.87833 0.18375 9.73 0.55125C10.5817 0.91875 11.3225 1.4175 11.9525 2.0475C12.5825 2.6775 13.0813 3.41833 13.4488 4.27C13.8162 5.12167 14 6.03167 14 7C14 7.95667 13.8162 8.86083 13.4488 9.7125C13.0813 10.5642 12.5825 11.3079 11.9525 11.9438C11.3225 12.5796 10.5817 13.0813 9.73 13.4488C8.87833 13.8162 7.96833 14 7 14ZM7 12.95C8.65667 12.95 10.0625 12.3696 11.2175 11.2087C12.3725 10.0479 12.95 8.645 12.95 7C12.95 5.34333 12.3725 3.9375 11.2175 2.7825C10.0625 1.6275 8.65667 1.05 7 1.05C5.355 1.05 3.95208 1.6275 2.79125 2.7825C1.63042 3.9375 1.05 5.34333 1.05 7C1.05 8.645 1.63042 10.0479 2.79125 11.2087C3.95208 12.3696 5.355 12.95 7 12.95Z" fill="white"/>
</svg>
