<svg width="21" height="21" viewBox="0 0 21 21" fill="none" xmlns="http://www.w3.org/2000/svg">
<path d="M20 20L13.6 13.6" stroke="white"/>
<circle cx="8" cy="8" r="7.5" stroke="white"/>
<path d="M1.58815 7.75004C1.7163 4.40502 4.40502 1.7163 7.75004 1.58815V7.36341L3.84991 3.16326L3.48351 3.50349L7.42674 7.75004H1.58815ZM1.58815 8.25004H7.42674L3.48351 12.4966L3.84991 12.8368L7.75004 8.63667V14.4119C4.40502 14.2838 1.7163 11.5951 1.58815 8.25004ZM8.25004 14.4119V8.63667L12.1502 12.8368L12.5166 12.4966L8.57334 8.25004H14.4119C14.2838 11.5951 11.5951 14.2838 8.25004 14.4119ZM14.4119 7.75004H8.57334L12.5166 3.50349L12.1502 3.16326L8.25004 7.36341V1.58815C11.5951 1.7163 14.2838 4.40502 14.4119 7.75004Z" stroke="white" stroke-width="0.5"/>
<circle cx="6.33316" cy="4.33337" r="1" fill="white"/>
<circle cx="11.5997" cy="8.40007" r="1.2" fill="white"/>
<circle cx="3.9998" cy="6.66667" r="0.666667" fill="white"/>
<circle cx="5.19976" cy="10" r="1.2" fill="white"/>
<circle cx="9.33302" cy="12" r="0.666667" fill="white"/>
<circle cx="8.39977" cy="7.60002" r="1.2" fill="white"/>
<circle cx="10.6664" cy="5.33341" r="0.666667" fill="white"/>
</svg>
