<svg width="14" height="14" viewBox="0 0 14 14" fill="none" xmlns="http://www.w3.org/2000/svg">
<path fill-rule="evenodd" clip-rule="evenodd" d="M6.41667 0.00460083C6.49962 0.00154257 6.58296 0 6.66667 0C6.75037 0 6.83371 0.00154257 6.91667 0.00460083C10.3998 0.133011 13.2003 2.93356 13.3287 6.41667C13.3318 6.49962 13.3333 6.58296 13.3333 6.66667C13.3333 6.75037 13.3318 6.83371 13.3287 6.91667C13.2003 10.3998 10.3998 13.2003 6.91667 13.3287C6.83371 13.3318 6.75037 13.3333 6.66667 13.3333C6.58296 13.3333 6.49962 13.3318 6.41667 13.3287C2.93356 13.2003 0.133011 10.3998 0.00460083 6.91667C0.00154257 6.83371 0 6.75037 0 6.66667C0 6.58296 0.00154257 6.49962 0.00460083 6.41667C0.133011 2.93356 2.93356 0.133011 6.41667 0.00460083ZM2.65712 1.98129C3.67627 1.10833 4.98356 0.562117 6.41667 0.504975V5.25762C6.2677 5.35374 6.14139 5.48195 6.0475 5.63247L2.65712 1.98129ZM5.8698 6.17591L2.2908 2.3216C1.23857 3.38124 0.5686 4.82096 0.504975 6.41667H5.8757C5.86958 6.36753 5.86642 6.31747 5.86642 6.26667C5.86642 6.23614 5.86756 6.20587 5.8698 6.17591ZM6.05753 6.91667H0.504975C0.5686 8.51237 1.23857 9.95209 2.2908 11.0117L3.43004 9.78486C2.98306 9.6103 2.66642 9.17546 2.66642 8.66667C2.66642 8.00393 3.20368 7.46667 3.86642 7.46667C4.34371 7.46667 4.75591 7.74532 4.94923 8.14881L6.07244 6.9392C6.06739 6.93175 6.06242 6.92424 6.05753 6.91667ZM6.91667 7.45742V12.8284C8.34978 12.7712 9.65707 12.225 10.6762 11.352L7.06836 7.46667C7.06772 7.46667 7.06707 7.46667 7.06642 7.46667C7.01571 7.46667 6.96573 7.46352 6.91667 7.45742ZM7.62356 7.32977L11.0425 11.0117C12.0948 9.95209 12.7647 8.51237 12.8284 6.91667H11.4571C11.4633 6.96581 11.4664 7.01587 11.4664 7.06667C11.4664 7.72941 10.9292 8.26667 10.2664 8.26667C9.60368 8.26667 9.06642 7.72941 9.06642 7.06667C9.06642 7.01587 9.06958 6.96581 9.0757 6.91667H8.0753C7.96318 7.09034 7.80743 7.23321 7.62356 7.32977ZM8.25713 6.41667H9.25754C9.47118 6.08574 9.84322 5.86667 10.2664 5.86667C10.6896 5.86667 11.0617 6.08574 11.2753 6.41667H12.8284C12.7647 4.82096 12.0948 3.38124 11.0425 2.3216L9.8615 3.59348C9.94819 3.706 9.99975 3.84698 9.99975 4C9.99975 4.36819 9.70127 4.66667 9.33309 4.66667C9.19777 4.66667 9.07186 4.62635 8.96673 4.55708L8.03597 5.55944C8.18088 5.75777 8.26642 6.00223 8.26642 6.26667C8.26642 6.31747 8.26326 6.36753 8.25713 6.41667ZM7.66364 5.2256L8.67942 4.13168C8.67089 4.08912 8.66642 4.04508 8.66642 4C8.66642 3.63181 8.9649 3.33334 9.33309 3.33334C9.36116 3.33334 9.38883 3.33507 9.416 3.33844L10.6762 1.98129C9.65707 1.10833 8.34978 0.562117 6.91667 0.504975V5.07592C6.96573 5.06981 7.01571 5.06667 7.06642 5.06667C7.28384 5.06667 7.48776 5.12449 7.66364 5.2256ZM4.04925 9.85283C4.59465 9.76945 5.0192 9.31891 5.06274 8.76138L6.41667 7.3033V12.8284C4.98356 12.7712 3.67627 12.225 2.65712 11.352L4.04925 9.85283ZM5.99982 3C5.99982 3.55228 5.5521 4 4.99982 4C4.44753 4 3.99982 3.55228 3.99982 3C3.99982 2.44772 4.44753 2 4.99982 2C5.5521 2 5.99982 2.44772 5.99982 3ZM2.66648 6C3.03467 6 3.33315 5.70153 3.33315 5.33334C3.33315 4.96515 3.03467 4.66667 2.66648 4.66667C2.29829 4.66667 1.99982 4.96515 1.99982 5.33334C1.99982 5.70153 2.29829 6 2.66648 6ZM7.99969 11.3333C8.36788 11.3333 8.66635 11.0349 8.66635 10.6667C8.66635 10.2985 8.36788 10 7.99969 10C7.6315 10 7.33302 10.2985 7.33302 10.6667C7.33302 11.0349 7.6315 11.3333 7.99969 11.3333Z" fill="white"/>
</svg>
